<mxfile host="app.diagrams.net" modified="2021-08-25T04:04:17.100Z" agent="5.0 (Macintosh; Intel Mac OS X 10_15_7) AppleWebKit/537.36 (KHTML, like Gecko) Chrome/92.0.4515.131 Safari/537.36" etag="0PLzq-oV39qP9MN5teQa" version="13.4.4" type="github" pages="2">
  <diagram id="PEKc1L_drBupShQN1M54" name="Page-2">
    <mxGraphModel dx="946" dy="545" grid="1" gridSize="10" guides="1" tooltips="1" connect="1" arrows="1" fold="1" page="1" pageScale="1" pageWidth="827" pageHeight="1169" math="0" shadow="0">
      <root>
        <mxCell id="YP36jwB_scypkNZuDLBu-0" />
        <mxCell id="YP36jwB_scypkNZuDLBu-1" parent="YP36jwB_scypkNZuDLBu-0" />
        <mxCell id="lCaSe6M0ed-OkJJaWONJ-0" style="edgeStyle=orthogonalEdgeStyle;rounded=0;orthogonalLoop=1;jettySize=auto;html=1;exitX=1;exitY=0.5;exitDx=0;exitDy=0;entryX=0;entryY=0.5;entryDx=0;entryDy=0;shadow=1;sketch=1;" edge="1" parent="YP36jwB_scypkNZuDLBu-1" source="lCaSe6M0ed-OkJJaWONJ-1" target="lCaSe6M0ed-OkJJaWONJ-4">
          <mxGeometry relative="1" as="geometry" />
        </mxCell>
        <mxCell id="lCaSe6M0ed-OkJJaWONJ-1" value="&lt;b&gt;opssla&lt;br&gt;(portal&amp;amp;facade)&lt;/b&gt;" style="rounded=1;whiteSpace=wrap;html=1;strokeWidth=2;fillWeight=4;hachureGap=8;hachureAngle=45;sketch=1;fillColor=#dae8fc;strokeColor=#6c8ebf;" vertex="1" parent="YP36jwB_scypkNZuDLBu-1">
          <mxGeometry x="270" y="230" width="120" height="60" as="geometry" />
        </mxCell>
        <mxCell id="lCaSe6M0ed-OkJJaWONJ-2" style="edgeStyle=orthogonalEdgeStyle;rounded=0;orthogonalLoop=1;jettySize=auto;html=1;exitX=0.5;exitY=1;exitDx=0;exitDy=0;entryX=0.5;entryY=0;entryDx=0;entryDy=0;startArrow=open;startFill=0;shadow=1;sketch=1;" edge="1" parent="YP36jwB_scypkNZuDLBu-1" source="lCaSe6M0ed-OkJJaWONJ-4" target="lCaSe6M0ed-OkJJaWONJ-5">
          <mxGeometry relative="1" as="geometry" />
        </mxCell>
        <mxCell id="lCaSe6M0ed-OkJJaWONJ-4" value="&lt;b&gt;zdrmdata&lt;br&gt;(runtime server)&lt;/b&gt;" style="rounded=1;whiteSpace=wrap;html=1;strokeWidth=2;fillWeight=4;hachureGap=8;hachureAngle=45;sketch=1;fillColor=#dae8fc;strokeColor=#6c8ebf;" vertex="1" parent="YP36jwB_scypkNZuDLBu-1">
          <mxGeometry x="460" y="230" width="120" height="60" as="geometry" />
        </mxCell>
        <mxCell id="lCaSe6M0ed-OkJJaWONJ-5" value="" style="rounded=1;whiteSpace=wrap;html=1;strokeWidth=2;fillWeight=4;hachureGap=8;hachureAngle=45;sketch=1;fillColor=none;" vertex="1" parent="YP36jwB_scypkNZuDLBu-1">
          <mxGeometry x="460" y="380" width="120" height="60" as="geometry" />
        </mxCell>
        <mxCell id="lCaSe6M0ed-OkJJaWONJ-6" style="edgeStyle=orthogonalEdgeStyle;rounded=0;orthogonalLoop=1;jettySize=auto;html=1;exitX=0.5;exitY=0.5;exitDx=0;exitDy=0;exitPerimeter=0;entryX=0;entryY=0.5;entryDx=0;entryDy=0;shadow=1;sketch=1;" edge="1" parent="YP36jwB_scypkNZuDLBu-1" source="lCaSe6M0ed-OkJJaWONJ-7" target="lCaSe6M0ed-OkJJaWONJ-1">
          <mxGeometry relative="1" as="geometry">
            <mxPoint x="510" y="100" as="targetPoint" />
          </mxGeometry>
        </mxCell>
        <mxCell id="lCaSe6M0ed-OkJJaWONJ-7" value="user" style="shape=umlActor;verticalLabelPosition=bottom;verticalAlign=top;html=1;outlineConnect=0;" vertex="1" parent="YP36jwB_scypkNZuDLBu-1">
          <mxGeometry x="120" y="150" width="30" height="60" as="geometry" />
        </mxCell>
        <mxCell id="lCaSe6M0ed-OkJJaWONJ-8" style="edgeStyle=orthogonalEdgeStyle;rounded=0;orthogonalLoop=1;jettySize=auto;html=1;exitX=1;exitY=0.5;exitDx=0;exitDy=0;entryX=0;entryY=0.5;entryDx=0;entryDy=0;shadow=1;sketch=1;" edge="1" parent="YP36jwB_scypkNZuDLBu-1" source="lCaSe6M0ed-OkJJaWONJ-9" target="lCaSe6M0ed-OkJJaWONJ-1">
          <mxGeometry relative="1" as="geometry" />
        </mxCell>
        <mxCell id="lCaSe6M0ed-OkJJaWONJ-9" value="app" style="rounded=1;whiteSpace=wrap;html=1;strokeWidth=2;fillWeight=4;hachureGap=8;hachureAngle=45;sketch=1;fillColor=none;arcSize=27;" vertex="1" parent="YP36jwB_scypkNZuDLBu-1">
          <mxGeometry x="57.5" y="290" width="95" height="60" as="geometry" />
        </mxCell>
        <mxCell id="lCaSe6M0ed-OkJJaWONJ-11" value="app" style="rounded=1;whiteSpace=wrap;html=1;strokeWidth=2;fillWeight=4;hachureGap=8;hachureAngle=45;sketch=1;fillColor=none;" vertex="1" parent="YP36jwB_scypkNZuDLBu-1">
          <mxGeometry x="470" y="390" width="120" height="60" as="geometry" />
        </mxCell>
      </root>
    </mxGraphModel>
  </diagram>
  <diagram id="m0SAfa3_Y6dOKCkV75EI" name="Page-3">
    <mxGraphModel dx="946" dy="545" grid="1" gridSize="10" guides="1" tooltips="1" connect="1" arrows="1" fold="1" page="1" pageScale="1" pageWidth="827" pageHeight="1169" math="0" shadow="0">
      <root>
        <mxCell id="biFO-zmuXHS4rhTJh73v-0" />
        <mxCell id="biFO-zmuXHS4rhTJh73v-1" parent="biFO-zmuXHS4rhTJh73v-0" />
        <mxCell id="1oUaTdBdwfrPtNK_WQy2-0" style="edgeStyle=orthogonalEdgeStyle;rounded=0;orthogonalLoop=1;jettySize=auto;html=1;exitX=1;exitY=0.5;exitDx=0;exitDy=0;entryX=0;entryY=0.5;entryDx=0;entryDy=0;shadow=1;sketch=1;" edge="1" parent="biFO-zmuXHS4rhTJh73v-1" source="1oUaTdBdwfrPtNK_WQy2-1" target="1oUaTdBdwfrPtNK_WQy2-3">
          <mxGeometry relative="1" as="geometry" />
        </mxCell>
        <mxCell id="1oUaTdBdwfrPtNK_WQy2-1" value="&lt;b&gt;opssla&lt;br&gt;(portal&amp;amp;facade)&lt;/b&gt;" style="rounded=1;whiteSpace=wrap;html=1;strokeWidth=2;fillWeight=4;hachureGap=8;hachureAngle=45;sketch=1;fillColor=#dae8fc;strokeColor=#6c8ebf;" vertex="1" parent="biFO-zmuXHS4rhTJh73v-1">
          <mxGeometry x="270" y="230" width="120" height="60" as="geometry" />
        </mxCell>
        <mxCell id="1oUaTdBdwfrPtNK_WQy2-2" style="edgeStyle=orthogonalEdgeStyle;rounded=0;orthogonalLoop=1;jettySize=auto;html=1;exitX=0.5;exitY=1;exitDx=0;exitDy=0;entryX=0.5;entryY=0;entryDx=0;entryDy=0;startArrow=open;startFill=0;shadow=1;sketch=1;" edge="1" parent="biFO-zmuXHS4rhTJh73v-1" source="1oUaTdBdwfrPtNK_WQy2-3" target="1oUaTdBdwfrPtNK_WQy2-4">
          <mxGeometry relative="1" as="geometry" />
        </mxCell>
        <mxCell id="sEJwYycIz2o_o_bBrH6n-0" style="edgeStyle=orthogonalEdgeStyle;rounded=0;orthogonalLoop=1;jettySize=auto;html=1;exitX=1;exitY=0.5;exitDx=0;exitDy=0;entryX=0;entryY=0.5;entryDx=0;entryDy=0;startArrow=none;startFill=0;shadow=1;sketch=1;" edge="1" parent="biFO-zmuXHS4rhTJh73v-1" source="1oUaTdBdwfrPtNK_WQy2-3" target="1oUaTdBdwfrPtNK_WQy2-9">
          <mxGeometry relative="1" as="geometry" />
        </mxCell>
        <mxCell id="1oUaTdBdwfrPtNK_WQy2-3" value="&lt;b&gt;zdrmdata&lt;br&gt;(runtime server)&lt;/b&gt;" style="rounded=1;whiteSpace=wrap;html=1;strokeWidth=2;fillWeight=4;hachureGap=8;hachureAngle=45;sketch=1;fillColor=#dae8fc;strokeColor=#6c8ebf;" vertex="1" parent="biFO-zmuXHS4rhTJh73v-1">
          <mxGeometry x="460" y="230" width="120" height="60" as="geometry" />
        </mxCell>
        <mxCell id="1oUaTdBdwfrPtNK_WQy2-4" value="" style="rounded=1;whiteSpace=wrap;html=1;strokeWidth=2;fillWeight=4;hachureGap=8;hachureAngle=45;sketch=1;fillColor=none;" vertex="1" parent="biFO-zmuXHS4rhTJh73v-1">
          <mxGeometry x="460" y="380" width="120" height="60" as="geometry" />
        </mxCell>
        <mxCell id="1oUaTdBdwfrPtNK_WQy2-5" style="edgeStyle=orthogonalEdgeStyle;rounded=0;orthogonalLoop=1;jettySize=auto;html=1;exitX=0.5;exitY=0.5;exitDx=0;exitDy=0;exitPerimeter=0;entryX=0;entryY=0.5;entryDx=0;entryDy=0;shadow=1;sketch=1;" edge="1" parent="biFO-zmuXHS4rhTJh73v-1" source="1oUaTdBdwfrPtNK_WQy2-6" target="1oUaTdBdwfrPtNK_WQy2-1">
          <mxGeometry relative="1" as="geometry">
            <mxPoint x="510" y="100" as="targetPoint" />
          </mxGeometry>
        </mxCell>
        <mxCell id="1oUaTdBdwfrPtNK_WQy2-6" value="user" style="shape=umlActor;verticalLabelPosition=bottom;verticalAlign=top;html=1;outlineConnect=0;" vertex="1" parent="biFO-zmuXHS4rhTJh73v-1">
          <mxGeometry x="120" y="150" width="30" height="60" as="geometry" />
        </mxCell>
        <mxCell id="1oUaTdBdwfrPtNK_WQy2-7" style="edgeStyle=orthogonalEdgeStyle;rounded=0;orthogonalLoop=1;jettySize=auto;html=1;exitX=1;exitY=0.5;exitDx=0;exitDy=0;entryX=0;entryY=0.5;entryDx=0;entryDy=0;shadow=1;sketch=1;" edge="1" parent="biFO-zmuXHS4rhTJh73v-1" source="1oUaTdBdwfrPtNK_WQy2-8" target="1oUaTdBdwfrPtNK_WQy2-1">
          <mxGeometry relative="1" as="geometry" />
        </mxCell>
        <mxCell id="1oUaTdBdwfrPtNK_WQy2-8" value="app" style="rounded=1;whiteSpace=wrap;html=1;strokeWidth=2;fillWeight=4;hachureGap=8;hachureAngle=45;sketch=1;fillColor=none;arcSize=27;" vertex="1" parent="biFO-zmuXHS4rhTJh73v-1">
          <mxGeometry x="57.5" y="290" width="95" height="60" as="geometry" />
        </mxCell>
        <mxCell id="1oUaTdBdwfrPtNK_WQy2-9" value="&lt;b&gt;registry&lt;/b&gt;" style="rounded=1;whiteSpace=wrap;html=1;strokeWidth=2;fillWeight=4;hachureGap=8;hachureAngle=45;sketch=1;fillColor=#dae8fc;strokeColor=#6c8ebf;" vertex="1" parent="biFO-zmuXHS4rhTJh73v-1">
          <mxGeometry x="630" y="230" width="120" height="60" as="geometry" />
        </mxCell>
        <mxCell id="sEJwYycIz2o_o_bBrH6n-2" value="app" style="rounded=1;whiteSpace=wrap;html=1;strokeWidth=2;fillWeight=4;hachureGap=8;hachureAngle=45;sketch=1;fillColor=none;" vertex="1" parent="biFO-zmuXHS4rhTJh73v-1">
          <mxGeometry x="470" y="390" width="120" height="60" as="geometry" />
        </mxCell>
        <mxCell id="sEJwYycIz2o_o_bBrH6n-6" style="orthogonalLoop=1;jettySize=auto;html=1;exitX=0.5;exitY=0;exitDx=0;exitDy=0;entryX=0.5;entryY=1;entryDx=0;entryDy=0;startArrow=classic;startFill=1;rounded=1;shadow=1;sketch=1;" edge="1" parent="biFO-zmuXHS4rhTJh73v-1" source="sEJwYycIz2o_o_bBrH6n-3" target="1oUaTdBdwfrPtNK_WQy2-9">
          <mxGeometry relative="1" as="geometry" />
        </mxCell>
        <mxCell id="sEJwYycIz2o_o_bBrH6n-3" value="" style="rounded=1;whiteSpace=wrap;html=1;strokeWidth=2;fillWeight=4;hachureGap=8;hachureAngle=45;sketch=1;fillColor=none;" vertex="1" parent="biFO-zmuXHS4rhTJh73v-1">
          <mxGeometry x="630" y="380" width="120" height="60" as="geometry" />
        </mxCell>
        <mxCell id="sEJwYycIz2o_o_bBrH6n-4" value="app" style="rounded=1;whiteSpace=wrap;html=1;strokeWidth=2;fillWeight=4;hachureGap=8;hachureAngle=45;sketch=1;fillColor=none;" vertex="1" parent="biFO-zmuXHS4rhTJh73v-1">
          <mxGeometry x="640" y="390" width="120" height="60" as="geometry" />
        </mxCell>
      </root>
    </mxGraphModel>
  </diagram>
</mxfile>
